<svg width="158" height="39" viewBox="0 0 158 39" fill="none" xmlns="http://www.w3.org/2000/svg">
<path d="M0 36L158 36" stroke="#FFCF26" stroke-width="6"/>
<path d="M17.9062 21.75L22.6562 22.4688C21.7292 25.0417 20.3385 27.0104 18.4844 28.375C16.6302 29.7292 14.4583 30.4062 11.9688 30.4062C9.16667 30.4062 6.97396 29.5625 5.39062 27.875C3.81771 26.1875 3.03125 23.7396 3.03125 20.5312C3.03125 17.9271 3.55729 15.5469 4.60938 13.3906C5.67188 11.224 7.14062 9.56771 9.01562 8.42188C10.8906 7.27604 12.9323 6.70312 15.1406 6.70312C17.6198 6.70312 19.625 7.36979 21.1562 8.70312C22.6875 10.026 23.5885 11.8333 23.8594 14.125L19.3438 14.5625C19.0938 13.2292 18.6094 12.2656 17.8906 11.6719C17.1823 11.0677 16.2344 10.7656 15.0469 10.7656C13.7448 10.7656 12.526 11.1615 11.3906 11.9531C10.2656 12.7448 9.36458 13.9844 8.6875 15.6719C8.01042 17.349 7.67188 19.026 7.67188 20.7031C7.67188 22.5365 8.10938 23.9531 8.98438 24.9531C9.86979 25.9531 10.9688 26.4531 12.2812 26.4531C13.5 26.4531 14.6146 26.0573 15.625 25.2656C16.6458 24.474 17.4062 23.3021 17.9062 21.75ZM30.7344 18.1094L26.3594 17.7344C26.8594 16.2552 27.7292 15.099 28.9688 14.2656C30.2188 13.4323 31.8698 13.0156 33.9219 13.0156C36.0573 13.0156 37.6354 13.4479 38.6562 14.3125C39.6771 15.1667 40.1875 16.2135 40.1875 17.4531C40.1875 17.9531 40.1406 18.4844 40.0469 19.0469C39.9635 19.6094 39.6562 21.0885 39.125 23.4844C38.6875 25.4635 38.4688 26.849 38.4688 27.6406C38.4688 28.349 38.5938 29.1354 38.8438 30H34.4844C34.3073 29.3958 34.1979 28.7708 34.1562 28.125C33.5 28.8542 32.7448 29.4167 31.8906 29.8125C31.0365 30.1979 30.1771 30.3906 29.3125 30.3906C27.9375 30.3906 26.8021 29.9427 25.9062 29.0469C25.0104 28.1406 24.5625 26.9792 24.5625 25.5625C24.5625 23.9792 25.0521 22.7135 26.0312 21.7656C27.0208 20.8177 28.7812 20.2448 31.3125 20.0469C33.4479 19.8698 34.875 19.6562 35.5938 19.4062C35.7812 18.7812 35.875 18.2812 35.875 17.9062C35.875 17.4271 35.6823 17.026 35.2969 16.7031C34.9115 16.3802 34.3385 16.2188 33.5781 16.2188C32.776 16.2188 32.1406 16.3854 31.6719 16.7188C31.2135 17.0417 30.901 17.5052 30.7344 18.1094ZM35 22.2656C34.7292 22.3385 34.3698 22.4062 33.9219 22.4688C31.6719 22.7396 30.2031 23.1354 29.5156 23.6562C29.026 24.0312 28.7812 24.5365 28.7812 25.1719C28.7812 25.6927 28.9688 26.1354 29.3438 26.5C29.7188 26.8542 30.2135 27.0312 30.8281 27.0312C31.5052 27.0312 32.1406 26.8698 32.7344 26.5469C33.3385 26.2135 33.7865 25.7917 34.0781 25.2812C34.3802 24.7604 34.6458 23.9531 34.875 22.8594L35 22.2656ZM45.4375 13.4062H49.625L48.9531 16.625C50.5156 14.2188 52.2083 13.0156 54.0312 13.0156C54.6771 13.0156 55.3698 13.1771 56.1094 13.5L54.3906 17.1719C53.9844 17.026 53.5521 16.9531 53.0938 16.9531C52.3229 16.9531 51.5365 17.2448 50.7344 17.8281C49.9427 18.4115 49.3229 19.1927 48.875 20.1719C48.4271 21.1406 47.9844 22.6823 47.5469 24.7969L46.4531 30H41.9688L45.4375 13.4062ZM64.4531 19.5781H73.1562L72.25 23.9062H63.5469L64.4531 19.5781ZM88 30H83.2812L88.0781 7.09375H98.25C100 7.09375 101.359 7.27604 102.328 7.64062C103.307 7.99479 104.094 8.65104 104.688 9.60938C105.292 10.5677 105.594 11.7292 105.594 13.0938C105.594 15.0417 105.01 16.651 103.844 17.9219C102.677 19.1823 100.911 19.9635 98.5469 20.2656C99.151 20.8073 99.7188 21.5208 100.25 22.4062C101.302 24.1979 102.474 26.7292 103.766 30H98.7031C98.2969 28.7083 97.5 26.6927 96.3125 23.9531C95.6667 22.474 94.9792 21.4792 94.25 20.9688C93.8021 20.6667 93.0208 20.5156 91.9062 20.5156H89.9844L88 30ZM90.7031 17.0781H93.2031C95.7344 17.0781 97.4115 16.9271 98.2344 16.625C99.0677 16.3229 99.7188 15.849 100.188 15.2031C100.656 14.5573 100.891 13.8802 100.891 13.1719C100.891 12.3385 100.552 11.7135 99.875 11.2969C99.4583 11.0469 98.5573 10.9219 97.1719 10.9219H91.9844L90.7031 17.0781ZM122.438 23.0938H111.188C111.177 23.2708 111.172 23.4062 111.172 23.5C111.172 24.6042 111.484 25.4948 112.109 26.1719C112.745 26.849 113.516 27.1875 114.422 27.1875C115.911 27.1875 117.073 26.4167 117.906 24.875L121.922 25.5469C121.141 27.1615 120.094 28.375 118.781 29.1875C117.479 29.9896 116.016 30.3906 114.391 30.3906C112.161 30.3906 110.349 29.6875 108.953 28.2812C107.557 26.8646 106.859 24.9948 106.859 22.6719C106.859 20.401 107.49 18.3802 108.75 16.6094C110.469 14.2135 112.922 13.0156 116.109 13.0156C118.141 13.0156 119.755 13.6458 120.953 14.9062C122.151 16.1562 122.75 17.9115 122.75 20.1719C122.75 21.2552 122.646 22.2292 122.438 23.0938ZM118.656 20.3594C118.667 20.1615 118.672 20.0104 118.672 19.9062C118.672 18.6771 118.396 17.7552 117.844 17.1406C117.292 16.526 116.552 16.2188 115.625 16.2188C114.698 16.2188 113.865 16.5677 113.125 17.2656C112.396 17.9635 111.901 18.9948 111.641 20.3594H118.656ZM127.625 13.4062H131.875L131.438 15.5625C132.5 14.6458 133.49 13.9948 134.406 13.6094C135.333 13.2135 136.307 13.0156 137.328 13.0156C138.693 13.0156 139.766 13.4062 140.547 14.1875C141.339 14.9688 141.734 16.0052 141.734 17.2969C141.734 17.8802 141.562 18.9844 141.219 20.6094L139.266 30H134.781L136.75 20.5781C137.042 19.1719 137.188 18.3333 137.188 18.0625C137.188 17.4896 137.016 17.0417 136.672 16.7188C136.339 16.3854 135.87 16.2188 135.266 16.2188C134.609 16.2188 133.88 16.4948 133.078 17.0469C132.276 17.599 131.646 18.3281 131.188 19.2344C130.854 19.8802 130.479 21.1979 130.062 23.1875L128.641 30H124.156L127.625 13.4062ZM144.781 16.7344L145.469 13.4062H147.656L148.203 10.75L153.344 7.65625L152.141 13.4062H154.875L154.188 16.7344H151.438L149.984 23.6875C149.724 24.9479 149.594 25.6667 149.594 25.8438C149.594 26.1875 149.703 26.4583 149.922 26.6562C150.141 26.8438 150.536 26.9375 151.109 26.9375C151.307 26.9375 151.802 26.901 152.594 26.8281L151.891 30.1562C151.12 30.3125 150.328 30.3906 149.516 30.3906C147.932 30.3906 146.781 30.0885 146.062 29.4844C145.344 28.8698 144.984 28.0208 144.984 26.9375C144.984 26.4271 145.177 25.25 145.562 23.4062L146.953 16.7344H144.781Z" fill="#1E1E1E"/>
</svg>
